HIERARCHY
ROOT Hips
{
	OFFSET 0.000000 0.000000 0.000000
	CHANNELS 6 Xposition Yposition Zposition Xrotation Yrotation Zrotation
	JOINT LeftUpLeg_virtual
	{
		OFFSET 0.000000 0.000000 0.000000
		CHANNELS 3 Xrotation Yrotation Zrotation
		JOINT LeftUpLeg
		{
			OFFSET 15.427100 -6.655098 0.678600
			CHANNELS 3 Xrotation Yrotation Zrotation
			JOINT LeftLeg
			{
				OFFSET 4.081073 -39.591068 13.024000
				CHANNELS 3 Xrotation Yrotation Zrotation
				JOINT LeftFoot
				{
					OFFSET -4.081074 -37.707932 -15.979700
					CHANNELS 3 Xrotation Yrotation Zrotation
					JOINT LeftToeBase
					{
						OFFSET 5.346399 -15.068900 20.645000
						CHANNELS 3 Xrotation Yrotation Zrotation
						JOINT LeftToe_End
						{
							OFFSET 2.754700 0.931300 11.300900
							CHANNELS 3 Xrotation Yrotation Zrotation
							End Site
							{
								OFFSET 0 0 0
							}
						}
					}
				}
			}
		}
	}
	JOINT RightUpLeg_virtual
	{
		OFFSET 0.000000 0.000000 0.000000
		CHANNELS 3 Xrotation Yrotation Zrotation
		JOINT RightUpLeg
		{
			OFFSET -15.569500 -6.655098 0.678600
			CHANNELS 3 Xrotation Yrotation Zrotation
			JOINT RightLeg
			{
				OFFSET -4.081825 -39.591045 13.023800
				CHANNELS 3 Xrotation Yrotation Zrotation
				JOINT RightFoot
				{
					OFFSET 4.081824 -37.707954 -15.979600
					CHANNELS 3 Xrotation Yrotation Zrotation
					JOINT RightToeBase
					{
						OFFSET -5.346400 -15.068900 20.645000
						CHANNELS 3 Xrotation Yrotation Zrotation
						JOINT RightToe_End
						{
							OFFSET -2.754700 0.931300 11.300900
							CHANNELS 3 Xrotation Yrotation Zrotation
							End Site
							{
								OFFSET 0 0 0
							}
						}
					}
				}
			}
		}
	}
	JOINT Spine_virtual
	{
		OFFSET 0.000000 0.000000 0.000000
		CHANNELS 3 Xrotation Yrotation Zrotation
		JOINT Spine
		{
			OFFSET -0.279200 12.230698 -2.892100
			CHANNELS 3 Xrotation Yrotation Zrotation
			JOINT Spine1
			{
				OFFSET -0.232667 10.192268 -1.242267
				CHANNELS 3 Xrotation Yrotation Zrotation
				JOINT Spine1_split
				{
					OFFSET -0.232667 10.192268 -1.242267
					CHANNELS 3 Xrotation Yrotation Zrotation
					JOINT Spine2
					{
						OFFSET -0.232667 10.192268 -1.242267
						CHANNELS 3 Xrotation Yrotation Zrotation
						JOINT Neck_virtual
						{
							OFFSET 0.000000 0.000000 0.000000
							CHANNELS 3 Xrotation Yrotation Zrotation
							JOINT Neck
							{
								OFFSET -0.418800 17.814194 8.416900
								CHANNELS 3 Xrotation Yrotation Zrotation
								JOINT Head
								{
									OFFSET 0.000000 7.031097 3.806800
									CHANNELS 3 Xrotation Yrotation Zrotation
									JOINT HeadTop_End
									{
										OFFSET 0.000000 24.646606 12.978600
										CHANNELS 3 Xrotation Yrotation Zrotation
										End Site
										{
											OFFSET 0 0 0
										}
									}
								}
							}
						}
						JOINT LeftShoulder_virtual
						{
							OFFSET 0.000000 0.000000 0.000000
							CHANNELS 3 Xrotation Yrotation Zrotation
							JOINT LeftShoulder
							{
								OFFSET 8.476499 7.247704 -3.868750
								CHANNELS 3 Xrotation Yrotation Zrotation
								JOINT LeftShoulder_split
								{
									OFFSET 8.476499 7.247704 -3.868750
									CHANNELS 3 Xrotation Yrotation Zrotation
									JOINT LeftArm
									{
										OFFSET 9.308998 -2.777710 0.208600
										CHANNELS 3 Xrotation Yrotation Zrotation
										JOINT LeftForeArm
										{
											OFFSET 29.972298 0.000000 0.000000
											CHANNELS 3 Xrotation Yrotation Zrotation
											JOINT LeftHand
											{
												OFFSET 26.026505 0.000000 0.000000
												CHANNELS 3 Xrotation Yrotation Zrotation
												End Site
												{
													OFFSET 0 0 0
												}
											}
										}
									}
								}
							}
						}
						JOINT RightShoulder_virtual
						{
							OFFSET 0.000000 0.000000 0.000000
							CHANNELS 3 Xrotation Yrotation Zrotation
							JOINT RightShoulder
							{
								OFFSET -7.570500 7.247704 -3.868750
								CHANNELS 3 Xrotation Yrotation Zrotation
								JOINT RightShoulder_split
								{
									OFFSET -7.570500 7.247704 -3.868750
									CHANNELS 3 Xrotation Yrotation Zrotation
									JOINT RightArm
									{
										OFFSET -9.308998 -2.777710 0.208500
										CHANNELS 3 Xrotation Yrotation Zrotation
										JOINT RightForeArm
										{
											OFFSET -29.972300 0.000000 0.000000
											CHANNELS 3 Xrotation Yrotation Zrotation
											JOINT RightHand
											{
												OFFSET -26.026505 0.000000 0.000000
												CHANNELS 3 Xrotation Yrotation Zrotation
												End Site
												{
													OFFSET 0 0 0
												}
											}
										}
									}
								}
							}
						}
					}
				}
			}
		}
	}
}
MOTION
Frames: 8
Frame Time: 0.03333333
11.635672 83.496071 -13.833721 0.000000 0.000000 0.000000 9.601975 16.876139 1.561134 -5.923067 11.357980 5.537173 45.454656 -4.683489 4.858267 -2.271796 -9.727235 -17.099097 -21.173132 0.270463 -1.551856 0.000000 0.000000 0.000000 9.574807 14.372023 1.634990 -31.886588 -7.844053 -9.797041 39.261573 2.218186 2.706354 -14.165419 2.089387 0.232458 -3.635464 1.617368 0.385671 0.000000 0.000000 0.000000 8.776629 15.756838 1.616818 1.385378 -2.711897 -2.530899 2.192950 -1.707896 1.862346 -1.247899 0.780049 0.084589 0.000000 0.000000 0.000000 2.336267 -2.527942 2.232768 -4.139858 3.411919 1.344456 -11.899168 3.977735 8.530901 0.000000 0.000000 0.000000 0.791515 -1.791341 2.614941 0.934015 1.394108 -0.508294 4.738442 -7.075419 6.927252 -41.747817 -7.879908 -37.483296 174.033780 -63.036437 173.928472 0.000000 0.000000 0.000000 1.154210 -2.975772 1.734409 -0.628145 -19.359862 6.683240 -1.140280 8.349288 -3.814348 -34.477070 8.760452 55.823361 -173.305750 61.352871 175.071696 0.000000 0.000000 0.000000 
12.139318 84.882050 -16.246094 0.000000 0.000000 0.000000 12.540124 17.186025 -1.789548 -18.268521 8.578444 13.143129 56.175034 -4.291223 3.240808 11.568462 -9.119598 -13.262439 -9.033751 0.931381 -5.369459 0.000000 0.000000 0.000000 10.788210 13.915103 -1.021204 -31.242696 -9.292422 -7.486745 36.994108 2.543198 2.610839 -12.579801 2.932914 1.440036 -8.681020 1.387814 -0.013201 0.000000 0.000000 0.000000 10.945312 15.009093 -0.791098 4.925515 -1.770408 -0.727869 2.269926 -1.269560 0.849611 0.423069 0.753440 0.005374 0.000000 0.000000 0.000000 2.489818 -2.126091 1.585630 -4.922764 2.943605 -0.552235 -15.305776 1.539982 9.829952 0.000000 0.000000 0.000000 1.124256 -1.413137 1.853962 1.175478 0.189757 10.962939 4.659544 -4.149111 2.533061 -58.175556 -6.737118 -36.168864 173.376088 -67.464715 172.664505 0.000000 0.000000 0.000000 1.495131 -2.276717 0.922720 -2.448275 -18.295604 -1.007753 -0.272279 6.039714 -4.027331 -52.907062 2.979741 58.855344 -173.421945 64.810859 174.315129 0.000000 0.000000 0.000000 
12.320853 85.055397 -17.890091 0.000000 0.000000 0.000000 13.999428 15.308831 -3.787026 -29.920047 6.517319 20.175335 67.584804 -2.633532 0.253171 20.085365 -5.029561 -4.438990 0.700136 0.654563 -7.693514 0.000000 0.000000 0.000000 11.741250 12.475745 -2.977783 -31.439333 -10.660058 -6.586144 36.998889 1.135611 2.991613 -12.050792 2.834084 0.494599 -13.348791 0.859071 -0.162150 0.000000 0.000000 0.000000 12.697619 12.813110 -2.249309 7.926674 -0.638004 0.308692 2.758104 -0.808483 0.004698 1.925036 0.915345 -0.287353 0.000000 0.000000 0.000000 3.185536 -1.685590 1.075798 -5.950124 2.542204 -2.272674 -19.168368 -0.458459 10.753143 0.000000 0.000000 0.000000 1.989423 -1.095462 1.184533 1.442543 -0.314643 21.296117 4.536749 -0.781961 -0.612077 -71.147157 -6.353707 -32.336574 168.724087 -75.451536 167.783611 0.000000 0.000000 0.000000 2.408392 -1.611515 0.193879 -4.074073 -16.449705 -8.904358 0.621612 2.879894 -3.904333 -66.417764 -3.766777 58.047449 -174.529105 69.070971 173.876372 0.000000 0.000000 0.000000 
12.298910 84.645981 -19.186005 0.000000 0.000000 0.000000 14.095173 11.854607 -3.922719 -39.809536 5.918809 24.823742 76.652071 -1.290162 -3.013540 22.491528 -0.477122 5.904578 2.659755 0.174376 -6.295220 0.000000 0.000000 0.000000 12.575162 9.773537 -3.668602 -32.666507 -11.816593 -7.415344 37.984417 -1.354513 3.980024 -11.421004 2.194415 -1.646336 -16.299413 0.199292 -0.023771 0.000000 0.000000 0.000000 13.888998 9.740684 -2.444089 9.794435 0.345399 0.426051 3.447200 -0.402879 -0.407199 1.836952 0.686324 0.079685 0.000000 0.000000 0.000000 4.127907 -1.245781 0.900443 -7.082589 2.221117 -3.215316 -22.524548 -1.735147 11.384917 0.000000 0.000000 0.000000 3.067390 -0.833000 0.904058 1.392169 0.088850 28.320674 4.184542 1.907407 -3.464765 -78.860319 -6.927520 -27.927262 152.952483 -83.011715 152.465040 0.000000 0.000000 0.000000 3.559734 -1.140437 -0.236799 -5.018916 -14.274107 -15.059411 1.203097 0.242015 -2.895316 -72.507499 -8.501992 55.262302 -176.943550 72.966515 174.435341 0.000000 0.000000 0.000000 
11.885726 84.521080 -20.156044 0.000000 0.000000 0.000000 13.717628 8.557379 -3.050385 -47.257864 6.669392 26.230204 80.841156 -1.251777 -5.330731 21.802413 1.505698 13.198759 -1.191358 -0.400087 -2.201261 0.000000 0.000000 0.000000 13.415200 6.111867 -2.950293 -34.433220 -12.057896 -9.439806 37.965781 -3.179909 5.142858 -10.009272 2.235022 -2.883586 -17.000317 -0.258910 0.187272 0.000000 0.000000 0.000000 15.246135 6.708641 -2.014011 10.264627 1.004652 -0.256513 4.168874 -0.119049 -0.293052 1.199789 0.097507 0.469971 0.000000 0.000000 0.000000 4.914660 -0.894382 1.108814 -8.340430 1.942815 -3.154874 -24.694112 -2.202455 11.881152 0.000000 0.000000 0.000000 3.868334 -0.513758 1.075523 0.966170 1.370459 30.015782 3.253298 2.280776 -5.006244 -79.648735 -7.171273 -24.506382 134.636511 -85.399044 135.009303 0.000000 0.000000 0.000000 4.622740 -0.836813 -0.218596 -5.117666 -12.280168 -17.713843 1.354401 -0.443164 -1.838787 -70.793647 -10.567542 52.992941 179.354457 75.087705 176.648062 0.000000 0.000000 0.000000 
10.926528 85.163757 -19.952408 0.000000 0.000000 0.000000 13.855628 5.743910 -1.997474 -52.604621 8.182789 25.105214 78.769826 -2.239849 -6.578159 20.565023 0.724190 15.551898 -5.861314 -1.243639 2.716252 0.000000 0.000000 0.000000 14.529687 2.561703 -1.719737 -35.100342 -11.194581 -11.056165 35.930278 -3.667771 6.197693 -8.336916 3.210094 -2.207901 -16.585137 -0.398859 0.383011 0.000000 0.000000 0.000000 16.766654 4.146680 -1.741040 9.430989 1.398080 -1.271394 4.748958 0.081986 0.253926 0.287978 0.172986 1.002201 0.000000 0.000000 0.000000 5.218793 -0.595471 1.603451 -9.618826 1.704997 -2.158678 -25.200121 -2.091853 12.277138 0.000000 0.000000 0.000000 4.357076 -0.109749 1.533415 0.502686 3.255297 25.978532 2.163056 -0.137824 -5.432778 -72.920404 -6.089542 -23.146277 157.896311 -82.227035 159.250204 0.000000 0.000000 0.000000 5.454155 -0.541076 0.220478 -4.522365 -10.825738 -16.522082 1.333140 0.114191 -0.054280 -62.085156 -10.079623 52.465135 175.965836 75.290043 179.282535 0.000000 0.000000 0.000000 
9.754164 85.928650 -18.922180 0.000000 0.000000 0.000000 15.083406 3.053175 -1.514471 -56.407804 10.160268 22.718124 71.357623 -2.962144 -6.847297 18.535352 -0.904156 14.018825 -7.015835 -1.963729 6.231907 0.000000 0.000000 0.000000 16.271520 -0.039273 -1.045121 -32.585675 -10.444903 -10.377752 32.023325 -3.461836 6.677721 -8.552292 4.205278 -0.816676 -16.046262 -0.292292 0.493892 0.000000 0.000000 0.000000 17.798566 1.786571 -2.002398 7.697073 1.798966 -2.043427 5.214612 0.256077 0.985152 0.179963 0.639574 1.374454 0.000000 0.000000 0.000000 4.858757 -0.322639 2.194610 -10.641677 1.506292 -0.535062 -23.825704 -1.459397 12.612778 0.000000 0.000000 0.000000 4.568074 0.321558 1.970348 0.507440 5.064292 17.098115 0.181047 -3.449584 -5.654180 -59.664475 -3.467028 -24.273502 172.142241 -74.719920 174.260829 0.000000 0.000000 0.000000 5.924742 -0.100571 0.858908 -3.526882 -10.115243 -11.996569 0.671758 1.886399 2.250720 -48.960217 -8.093454 52.884119 175.227438 75.044251 179.866215 0.000000 0.000000 0.000000 
8.720012 86.036736 -17.297585 0.000000 0.000000 0.000000 16.983434 0.351284 -1.951105 -58.243298 12.013083 20.348804 61.494625 -3.109921 -6.164107 13.455608 -2.005259 10.059836 -3.553222 -1.916003 7.124300 0.000000 0.000000 0.000000 17.956695 -1.392290 -1.432110 -26.393774 -10.386843 -7.254635 28.649929 -3.387042 6.577254 -12.912619 4.488259 -0.356688 -15.486066 -0.083541 0.603238 0.000000 0.000000 0.000000 18.133737 -0.073380 -3.002120 5.731788 2.291971 -2.358137 5.581867 0.498285 1.569524 0.866652 1.183743 1.472943 0.000000 0.000000 0.000000 4.073537 -0.038767 2.596545 -11.144961 1.296740 1.227379 -20.961521 -0.388311 12.863180 0.000000 0.000000 0.000000 4.559416 0.726534 2.091893 1.094238 6.204767 5.024875 -2.034327 -6.156149 -4.411080 -41.467103 -0.050762 -27.240683 178.015903 -67.289917 -179.341520 0.000000 0.000000 0.000000 6.104027 0.501710 1.454303 -2.288889 -10.131747 -5.312445 -0.289465 2.766899 4.279566 -35.311525 -6.199694 53.186533 177.877360 75.891980 177.444121 0.000000 0.000000 0.000000 
